<svg width="32" height="32" fill="none" xmlns="http://www.w3.org/2000/svg">
  <path
    d="M20.708 19.035h-1.084a.783.783 0 00-.701.433l-1.002 2.003a.392.392 0 01-.7 0l-2.45-4.9a.392.392 0 00-.696-.011l-1.115 2.063a.787.787 0 01-.69.412h-.978"
    stroke="#4C566A" stroke-width="2" stroke-linecap="round" stroke-linejoin="round" />
  <path
    d="M6.559 16H5.335a2.667 2.667 0 00-2.602 3.253l.903 4a2.667 2.667 0 002.601 2.08h1.595a.667.667 0 00.65-.813L6.76 16.892C5.423 10.968 9.927 5.333 16 5.333v0c6.073 0 10.577 5.635 9.24 11.559l-1.72 7.628a.666.666 0 00.65.813h1.594a2.667 2.667 0 002.601-2.08l.903-4A2.667 2.667 0 0026.665 16h-1.224"
    stroke="#88C0D0" stroke-width="2" stroke-linecap="round" stroke-linejoin="round" /></svg>
